<svg width="214" height="74" viewBox="0 0 214 74" fill="none" xmlns="http://www.w3.org/2000/svg">
  <g clip-path="url(#clip0_6_70)">
    <path fill-rule="evenodd" clip-rule="evenodd"
      d="M4.55908 38.5636L10.6222 0.168344H25.9143L29.5093 18.7484L39.0601 0.168344H54.9423L48.8792 38.5636H36.8065L40.4015 15.7949L28.0605 38.5636H23.9827L18.9926 15.7949L15.3977 38.5636H4.55908ZM56.0691 38.5636L62.1323 0.168344H74.4196L68.3564 38.5636H56.0691ZM91.214 39.2617C80.6974 39.2617 74.6342 34.5898 74.7415 26.2664H86.1166C86.224 28.6292 87.5654 30.6698 91.4823 30.6698C94.3797 30.7235 95.8284 29.5421 95.8284 27.3941C95.8284 25.8368 94.5407 24.9776 90.892 24.2795C81.3412 22.3463 77.9072 19.178 77.9072 12.7341C77.9072 5.26981 83.6485 -0.368652 93.7895 -0.368652C103.126 -0.368652 108.813 3.39032 108.706 11.8749H97.5991C97.4381 9.35099 95.9894 8.16959 93.4676 8.16959C90.9457 8.16959 89.658 9.29729 89.658 11.0694C89.658 12.6804 90.7847 13.3785 94.5407 14.1303C103.233 15.8486 107.74 18.8021 107.74 25.5683C107.74 33.6232 101.999 39.1543 91.214 39.2617ZM116.915 38.5636L121.476 9.51209H111.764L113.32 0.168344H144.924L143.422 9.51209H133.71L129.149 38.5636H116.915ZM143.422 38.5636L149.485 0.168344H176.688L175.24 9.51209H160.109L159.25 14.9358H171.269L169.981 23.4203H157.962L156.997 29.2199H172.986L171.537 38.5636H143.422ZM176.742 38.5636L182.805 0.168344H197.99C207.809 0.168344 212.531 4.46432 212.531 11.2842C212.531 17.567 208.99 21.5408 204 22.937L210.868 38.5636H198.58L192.893 25.4072H190.907L188.868 38.5636H176.742ZM192.141 17.567H195.468C198.741 17.567 200.673 16.1708 200.673 12.8952C200.673 10.4787 199.224 9.29729 196.327 9.29729H193.483L192.141 17.567Z"
      fill="#58AB6F" />
    <path d="M207.374 47.6823L203.158 73.3067H143.09L147.306 47.6787L207.374 47.6823Z" fill="black" />
    <path fill-rule="evenodd" clip-rule="evenodd"
      d="M178.636 70.4131L181.736 50.7949H188.376C195.071 50.7949 198.501 53.8954 198.501 59.1361C198.501 66.4894 193.809 70.4131 187.032 70.4131H178.636ZM185.605 65.6937H187.059C190.297 65.6937 192.053 63.4438 192.053 59.4104C192.053 56.8587 190.818 55.5143 188.239 55.5143H187.224L185.605 65.6937Z"
      fill="#F6F6F6" />
    <path fill-rule="evenodd" clip-rule="evenodd"
      d="M152.736 70.4131L155.836 50.7949H163.656L165.495 60.2885L170.378 50.7949H178.5L175.4 70.4131H169.226L171.064 58.7794L164.754 70.4131H162.668L160.117 58.7794L158.278 70.4131H152.736Z"
      fill="#FFEB00" />
    <path d="M151.374 47.6823L147.158 73.3067H143.09L147.306 47.6787L151.374 47.6823Z" fill="#DD1F2B" />
    <path d="M209.386 47.6823L205.17 73.3067H201.102L205.318 47.6787L209.386 47.6823Z" fill="#DD1F2B" />
    <path fill-rule="evenodd" clip-rule="evenodd"
      d="M3.19329 50.4166H17.1816L16.3903 55.3663H8.81686L8.25168 59.128H14.3274L13.5644 63.8514H7.48868L6.41483 70.6394H0L3.19329 50.4166ZM27.7505 67.2737H21.3922L19.951 70.6394H13.8187L23.3986 50.4166H31.6503L34.7871 70.6394H28.1461L27.7505 67.2737ZM23.2856 62.918H27.2701L26.4506 55.5925L23.2856 62.918ZM40.015 50.4166H47.2211L51.2056 60.9381L52.8729 50.4166H58.553L55.3597 70.6394H49.2275L44.3952 58.6755L42.5301 70.6394H36.8217L40.015 50.4166ZM65.2787 55.338H60.1638L60.9833 50.4166H77.628L76.8367 55.338H71.7218L69.3198 70.6394H62.8767L65.2787 55.338ZM87.3774 67.2737H81.0191L79.5778 70.6394H73.4456L83.0255 50.4166H91.2772L94.4139 70.6394H87.773L87.3774 67.2737ZM82.9124 62.918H86.897L86.0775 55.5925L82.9124 62.918ZM104.107 71.0071C102.713 71.0071 101.479 70.8563 100.405 70.5546C99.331 70.2529 98.422 69.8098 97.6779 69.2253C96.9337 68.6407 96.3685 67.9242 95.9823 67.0757C95.5961 66.2272 95.4124 65.2561 95.4313 64.1625H101.422C101.441 64.483 101.502 64.78 101.606 65.0534C101.709 65.3268 101.87 65.5719 102.086 65.7888C102.303 66.0056 102.59 66.1753 102.948 66.2979C103.306 66.4205 103.739 66.4817 104.248 66.4817C105.021 66.5006 105.595 66.3592 105.972 66.0575C106.349 65.7558 106.537 65.3221 106.537 64.7564C106.537 64.3416 106.344 64.0116 105.958 63.7665C105.572 63.5214 104.898 63.3045 103.937 63.116C102.675 62.8709 101.611 62.5739 100.744 62.2251C99.8774 61.8762 99.1756 61.4567 98.6387 60.9664C98.1017 60.4762 97.7108 59.9105 97.4659 59.2694C97.221 58.6283 97.0985 57.8835 97.0985 57.035C97.0985 56.0545 97.2822 55.1447 97.6496 54.3056C98.017 53.4665 98.5586 52.7359 99.2745 52.1136C99.9904 51.4914 100.866 51.0059 101.903 50.657C102.939 50.3082 104.126 50.1338 105.463 50.1338C106.688 50.1338 107.79 50.2611 108.77 50.5156C109.749 50.7702 110.578 51.1614 111.256 51.6894C111.935 52.2174 112.453 52.8867 112.811 53.6975C113.169 54.5083 113.338 55.47 113.319 56.5825H107.47C107.394 55.2814 106.669 54.6309 105.294 54.6309C104.634 54.6309 104.135 54.7676 103.796 55.041C103.457 55.3144 103.287 55.6868 103.287 56.1582C103.287 56.5919 103.466 56.9219 103.824 57.1481C104.182 57.3744 104.86 57.5818 105.859 57.7704C107.008 57.9966 108.016 58.2701 108.883 58.5906C109.749 58.9111 110.475 59.3071 111.059 59.7785C111.643 60.2499 112.081 60.8156 112.373 61.4755C112.665 62.1355 112.811 62.9086 112.811 63.7948C112.811 64.8507 112.622 65.8171 112.245 66.6939C111.869 67.5707 111.313 68.3296 110.578 68.9707C109.843 69.6118 108.934 70.1068 107.851 70.4556C106.768 70.8044 105.52 70.9883 104.107 71.0071ZM118.717 61.9846L114.026 50.4166H120.667L122.843 56.6673L126.884 50.4166H133.27L125.132 62.324L123.832 70.6394H117.389L118.717 61.9846Z"
      fill="#8D8D8D" />
  </g>
  <defs>
    <clipPath id="clip0_6_70">
      <rect width="212.531" height="74" fill="white" />
    </clipPath>
  </defs>
</svg>