<svg width="0" height="0" class="hidden" xmlns="http://www.w3.org/2000/svg">
  <symbol viewBox="0 0 30 30" id="accept">
    <path d="M23.48 7.4a1.5 1.5 0 0 1 2.148 2.09l-.107.11-14 13a1.5 1.5 0 0 1-1.97.061l-.112-.1-5-5a1.5 1.5 0 0 1 2.008-2.225l.114.103 3.977 3.978L23.479 7.401z" fill-rule="evenodd"></path>
  </symbol>
  <symbol viewBox="0 0 30 30" id="add">
    <path d="M15 2a3 3 0 0 1 3 3v7h7a3 3 0 0 1 0 6h-7v7a3 3 0 0 1-6 0v-7H5a3 3 0 0 1 0-6h7V5a3 3 0 0 1 3-3z" fill-rule="evenodd"></path>
  </symbol>
  <symbol viewBox="0 0 30 30" id="add-circle">
    <path d="M15 0c8.284 0 15 6.716 15 15 0 8.284-6.716 15-15 15-8.284 0-15-6.716-15-15C0 6.716 6.716 0 15 0zm0 2.5C8.096 2.5 2.5 8.096 2.5 15S8.096 27.5 15 27.5 27.5 21.904 27.5 15 21.904 2.5 15 2.5zM15 7a1.5 1.5 0 0 1 1.5 1.5v5h5a1.5 1.5 0 0 1 0 3h-5v5a1.5 1.5 0 0 1-3 0v-5h-5a1.5 1.5 0 0 1 0-3h5v-5A1.5 1.5 0 0 1 15 7z" fill-rule="evenodd"></path>
  </symbol>
  <symbol viewBox="0 0 30 30" id="apple">
    <path d="M19.027 4.546C19.94 3.366 20.632 1.7 20.382 0c-1.493.104-3.237 1.059-4.255 2.303-.928 1.128-1.69 2.806-1.393 4.434 1.632.051 3.316-.927 4.293-2.191zm8.065 15.997c-.653 1.456-.968 2.106-1.809 3.395-1.173 1.8-2.828 4.04-4.88 4.057-1.821.02-2.29-1.194-4.764-1.179-2.472.013-2.988 1.202-4.813 1.184-2.05-.018-3.618-2.04-4.791-3.84-3.283-5.028-3.629-10.93-1.604-14.07 1.44-2.229 3.711-3.533 5.845-3.533 2.172 0 3.539 1.199 5.337 1.199 1.745 0 2.807-1.202 5.319-1.202 1.901 0 3.916 1.042 5.35 2.84-4.7 2.592-3.94 9.343.81 11.15z" fill="#FFF" fill-rule="evenodd"></path>
  </symbol>
  <symbol viewBox="0 0 30 30" id="arrow">
    <path d="M16.548 8.427l.104.113 5 6 .02.025c.018.021.034.043.05.065l-.07-.09a1.508 1.508 0 0 1 .225.364l.012.028a1.492 1.492 0 0 1-.084 1.308.987.987 0 0 1-.047.077l-.013.02-.023.033a1.506 1.506 0 0 1-.05.065l-.02.025-5 6a1.5 1.5 0 0 1-2.397-1.798l.093-.122L17.297 17H9.5a1.5 1.5 0 0 1-.144-2.993L9.5 14h7.796l-2.948-3.54a1.5 1.5 0 0 1 2.2-2.033z" fill-rule="evenodd"></path>
  </symbol>
  <symbol viewBox="0 0 30 30" id="back">
    <path d="M17.96 6.161a1.5 1.5 0 0 1 0 2.121L11.243 15l6.717 6.719a1.5 1.5 0 1 1-2.121 2.12l-7.763-7.762a1.5 1.5 0 0 1-.015-2.136l7.778-7.779a1.5 1.5 0 0 1 2.121 0z" fill-rule="evenodd"></path>
  </symbol>
  <symbol viewBox="0 0 30 30" id="balance">
    <path d="M16.755 25.36c4.38 0 6.93-2.43 8.34-4.92l-3.66-1.77c-.84 1.62-2.64 2.91-4.68 2.91-2.52 0-4.53-1.29-5.55-3.33h7.35v-2.37h-8.07c-.03-.27-.03-.57-.03-.87 0-.33 0-.63.06-.96h8.04v-2.37h-7.32c1.05-1.98 3.06-3.24 5.52-3.24 2.04 0 3.84 1.29 4.68 2.91l3.66-1.8c-1.41-2.52-3.96-4.89-8.34-4.89-4.89 0-8.85 2.73-10.2 7.02h-1.56v2.37h1.11c-.03.33-.03.63-.03.96 0 .3 0 .6.03.87h-1.11v2.37h1.53c1.32 4.35 5.31 7.11 10.23 7.11z" fill-rule="evenodd"></path>
  </symbol>
  <symbol viewBox="0 0 30 30" id="coin">
    <path d="M15 3c6.627 0 12 5.373 12 12s-5.373 12-12 12S3 21.627 3 15 8.373 3 15 3zm0 2.5a9.5 9.5 0 1 0 0 19 9.5 9.5 0 0 0 0-19zM15 9a6 6 0 1 1 0 12 6 6 0 0 1 0-12z" fill-rule="evenodd"></path>
  </symbol>
  <symbol viewBox="0 0 28 28" id="conflict">
    <g fill="none" fill-rule="evenodd">
      <path d="M15.664 6.496l10.263 15.395A2 2 0 0 1 24.263 25H3.737a2 2 0 0 1-1.664-3.11L12.336 6.497a2 2 0 0 1 3.328 0z" fill="#FF1853"></path>
      <path d="M14.75 18l.25-6h-2l.26 6h1.49zm-.745 4c.546 0 .995-.46.995-1.005 0-.535-.45-.995-.995-.995-.545 0-1.005.46-1.005.995 0 .545.46 1.005 1.005 1.005z" fill="#FFF" fill-rule="nonzero"></path>
    </g>
  </symbol>
  <symbol viewBox="0 0 30 30" id="cross">
    <path d="M23.132 7.575a1.5 1.5 0 0 1 0 2.122l-5.657 5.657 5.303 5.303a1.5 1.5 0 0 1-2.121 2.121l-5.303-5.303-5.657 5.657a1.5 1.5 0 0 1-2.122-2.122l5.657-5.656-6.01-6.01a1.5 1.5 0 0 1 2.121-2.122l6.01 6.01 5.657-5.657a1.5 1.5 0 0 1 2.122 0z" fill-rule="evenodd"></path>
  </symbol>
  <symbol viewBox="0 0 30 30" id="cross-circle">
    <path d="M15 0c8.284 0 15 6.716 15 15 0 8.284-6.716 15-15 15-8.284 0-15-6.716-15-15C0 6.716 6.716 0 15 0zm7.071 7.929a1.5 1.5 0 0 1 0 2.121L17.121 15l4.95 4.95a1.5 1.5 0 0 1-2.121 2.121L15 17.121l-4.95 4.95a1.5 1.5 0 0 1-2.12-2.121L12.88 15l-4.95-4.95a1.5 1.5 0 1 1 2.12-2.12L15 12.88l4.95-4.95a1.5 1.5 0 0 1 2.121 0z" fill-rule="evenodd"></path>
  </symbol>
  <symbol viewBox="0 0 30 30" id="edit">
    <path d="M11.35 22.411a.7.7 0 0 1-.338 1.177l-4.236.976a.7.7 0 0 1-.84-.84l.976-4.236a.7.7 0 0 1 1.177-.338l3.261 3.261zm12.49-15.75a2.975 2.975 0 0 1 0 4.207L13.426 21.282a.84.84 0 0 1-1.188 0l-3.02-3.02a.84.84 0 0 1 0-1.187L19.633 6.66a2.975 2.975 0 0 1 4.207 0z" fill-rule="evenodd"></path>
  </symbol>
  <symbol viewBox="0 0 30 30" id="expand">
    <path d="M19.72 11.464a2 2 0 0 1 2.682 2.962l-.122.11-6 5a2 2 0 0 1-2.426.103l-.134-.103-6-5a2 2 0 0 1 2.43-3.172l.13.1L15 15.396l4.72-3.932z" fill-rule="evenodd"></path>
  </symbol>
  <symbol viewBox="0 0 30 30" id="eye">
    <path d="M15 5.75c3.335 0 6.235 1.676 8.687 4.416a20.65 20.65 0 0 1 2.764 3.947l.177.349c.163.34.163.736 0 1.076-.107.225-.285.563-.534.985l-.23.383a20.65 20.65 0 0 1-2.177 2.928c-2.452 2.74-5.352 4.416-8.687 4.416-3.335 0-6.235-1.676-8.687-4.416a20.65 20.65 0 0 1-2.764-3.947l-.177-.349a1.25 1.25 0 0 1 0-1.076c.107-.225.285-.563.534-.985l.23-.383a20.65 20.65 0 0 1 2.177-2.928C8.765 7.426 11.665 5.75 15 5.75zm0 2.5c-2.511 0-4.802 1.324-6.824 3.584a18.177 18.177 0 0 0-2.174 3.013L5.915 15l.149.26.201.335c.541.878 1.18 1.757 1.91 2.572 2.023 2.26 4.314 3.584 6.825 3.584s4.802-1.324 6.824-3.584a18.177 18.177 0 0 0 2.174-3.013l.086-.154-.148-.259-.201-.334a18.177 18.177 0 0 0-1.91-2.572C19.801 9.574 17.51 8.25 15 8.25zM15 11a4 4 0 1 1 0 8 4 4 0 0 1 0-8zm0 2.5a1.5 1.5 0 1 0 0 3 1.5 1.5 0 0 0 0-3z" fill-rule="evenodd"></path>
  </symbol>
  <symbol viewBox="0 0 30 30" id="eye-filled">
    <path d="M15 5.75c3.335 0 6.235 1.676 8.687 4.416a20.65 20.65 0 0 1 2.764 3.947l.177.349c.163.34.163.736 0 1.076-.107.225-.285.563-.534.985l-.23.383a20.65 20.65 0 0 1-2.177 2.928c-2.452 2.74-5.352 4.416-8.687 4.416-3.335 0-6.235-1.676-8.687-4.416a20.65 20.65 0 0 1-2.764-3.947l-.177-.349a1.25 1.25 0 0 1 0-1.076c.107-.225.285-.563.534-.985l.23-.383a20.65 20.65 0 0 1 2.177-2.928C8.765 7.426 11.665 5.75 15 5.75zM15 11a4 4 0 1 0 0 8 4 4 0 0 0 0-8zm0 2.5a1.5 1.5 0 1 1 0 3 1.5 1.5 0 0 1 0-3z"></path>
  </symbol>
  <symbol viewBox="0 0 30 30" xmlns:xlink="http://www.w3.org/1999/xlink" id="facebook">
    <defs>
      <path id="a" d="M0 0h29.998v30H0z"></path>
    </defs>
    <g fill="none" fill-rule="evenodd">
      <mask id="b" fill="#fff">
        <use xlink:href="#a"></use>
      </mask>
      <path d="M30 15.092C30 6.757 23.284 0 15 0 6.716 0 0 6.757 0 15.092 0 22.624 5.485 28.868 12.656 30V19.454H8.848v-4.362h3.808v-3.325c0-3.783 2.24-5.872 5.666-5.872 1.641 0 3.358.295 3.358.295v3.714h-1.892c-1.863 0-2.444 1.163-2.444 2.357v2.83h4.16l-.665 4.363h-3.495V30C24.514 28.868 30 22.624 30 15.092" fill="#FFFFFE" mask="url(#b)"></path>
    </g>
  </symbol>
  <symbol viewBox="0 0 30 30" id="filter">
    <path d="M3.252 4l-.12.005c-.986.09-1.495 1.27-.834 2.052l9.104 10.766v7.227c0 .473.268.906.691 1.118l4.7 2.35.11.049a1.25 1.25 0 0 0 1.7-1.167v-9.578l9.104-10.765c.687-.812.11-2.057-.955-2.057h-23.5zm20.805 2.5l-7.66 9.058-.087.118a1.25 1.25 0 0 0-.208.69v8.011l-2.2-1.1v-6.912l-.008-.146a1.25 1.25 0 0 0-.287-.66L5.947 6.5h18.11z" fill-rule="evenodd"></path>
  </symbol>
  <symbol viewBox="0 0 30 30" id="google">
    <g fill="none" fill-rule="evenodd">
      <path d="M6.626 15c0-.953.155-1.866.432-2.723l-4.84-3.774A14.917 14.917 0 0 0 .742 15c0 2.335.53 4.538 1.473 6.493l4.837-3.782A8.846 8.846 0 0 1 6.626 15" fill="#FBBC05"></path>
      <path d="M15.124 6.333c2.027 0 3.857.734 5.295 1.934L24.603 4C22.053 1.733 18.785.333 15.124.333c-5.683 0-10.568 3.32-12.907 8.17l4.84 3.774c1.116-3.457 4.295-5.944 8.067-5.944" fill="#EA4335"></path>
      <path d="M15.124 23.667c-3.772 0-6.951-2.487-8.066-5.944l-4.84 3.774c2.338 4.85 7.223 8.17 12.906 8.17 3.508 0 6.857-1.272 9.37-3.656L19.9 22.384c-1.296.834-2.928 1.283-4.776 1.283" fill="#34A853"></path>
      <path d="M28.852 15c0-.867-.13-1.8-.327-2.667h-13.4V18h7.713c-.386 1.932-1.436 3.417-2.938 4.384l4.594 3.627c2.64-2.502 4.358-6.23 4.358-11.011" fill="#4285F4"></path>
    </g>
  </symbol>
  <symbol viewBox="0 0 30 30" id="help">
    <path d="M14.936 21.189c-1.064 0-1.857.73-1.93 1.726l-.006.151v.056c0 1.073.819 1.878 1.936 1.878 1.064 0 1.857-.73 1.93-1.726l.006-.208c0-1.072-.819-1.877-1.936-1.877zM15.052 6c-2.207 0-4.001.652-5.504 1.898A1.454 1.454 0 0 0 9 9.024c0 .787.672 1.459 1.46 1.459.324 0 .67-.13.96-.348 1.1-.824 2.241-1.219 3.548-1.219 1.81 0 2.986.854 3.071 2.315l.005.227c0 1.686-1.331 2.593-3.994 2.93-.594.074-.907.429-.869.986l.014.123.28 1.902c.075.51.433.883.898.937l.119.007h.224c.472 0 .869-.346.993-.83l.026-.123.14-.844.338-.068c3.277-.66 5.011-2.132 5.11-4.879l.005-.309c0-3.323-2.383-5.29-6.276-5.29z" fill-rule="evenodd"></path>
  </symbol>
  <symbol viewBox="0 0 30 30" id="home-off">
    <path d="M17.713 3.06l8.678 8.012A5 5 0 0 1 28 14.746V25a3 3 0 0 1-3 3h-5.5a2 2 0 0 1-2-2v-6.5a2.5 2.5 0 0 0-4.995-.164l-.005.164V26a2 2 0 0 1-2 2H5a3 3 0 0 1-3-3V14.746a5 5 0 0 1 1.609-3.674l8.678-8.011a4 4 0 0 1 5.426 0zm-1.696 1.838a1.5 1.5 0 0 0-1.916-.1l-.118.1-8.679 8.01a2.5 2.5 0 0 0-.797 1.648l-.007.19V25a.5.5 0 0 0 .41.492L5 25.5h5l.001-6.08.01-.246a5 5 0 0 1 9.984.11L20 19.5v6h5a.5.5 0 0 0 .492-.41L25.5 25V14.746a2.5 2.5 0 0 0-.67-1.704l-.134-.133-8.679-8.011z" fill-rule="evenodd"></path>
  </symbol>
  <symbol viewBox="0 0 30 30" id="home-on">
    <path d="M19.5 28a2 2 0 0 1-2-2v-6.5a2.5 2.5 0 0 0-4.995-.164l-.005.164V26a2 2 0 0 1-2 2H5a3 3 0 0 1-3-3V14.746a5 5 0 0 1 1.609-3.674l8.678-8.011a4 4 0 0 1 5.426 0l8.678 8.01A5 5 0 0 1 28 14.747V25a3 3 0 0 1-3 3h-5.5z" fill-rule="evenodd"></path>
  </symbol>
  <symbol viewBox="0 0 640 512" id="plane">
    <path d="M381 114.9L186.1 41.8c-16.7-6.2-35.2-5.3-51.1 2.7L89.1 67.4C78 73 77.2 88.5 87.6 95.2l146.9 94.5L136 240 77.8 214.1c-8.7-3.9-18.8-3.7-27.3 .6L18.3 230.8c-9.3 4.7-11.8 16.8-5 24.7l73.1 85.3c6.1 7.1 15 11.2 24.3 11.2H248.4c5 0 9.9-1.2 14.3-3.4L535.6 212.2c46.5-23.3 82.5-63.3 100.8-112C645.9 75 627.2 48 600.2 48H542.8c-20.2 0-40.2 4.8-58.2 14L381 114.9zM0 480c0 17.7 14.3 32 32 32H608c17.7 0 32-14.3 32-32s-14.3-32-32-32H32c-17.7 0-32 14.3-32 32z"/>
  </symbol>
  <symbol viewBox="0 0 28 28" id="invite">
    <g fill="none" fill-rule="evenodd" stroke="#000" stroke-width="2.5">
      <circle cx="17.5" cy="9" r="3.75"></circle>
      <path d="M10 23v-2a4 4 0 0 1 4-4h7a4 4 0 0 1 4 4v2M6 10v6m-3-3h6" stroke-linecap="round" stroke-linejoin="round"></path>
    </g>
  </symbol>
  <symbol viewBox="0 0 16 18" id="lock">
    <path d="M14.25 6.25H11.75V4.375C11.75 3.38044 11.3549 2.42661 10.6517 1.72335C9.94839 1.02009 8.99456 0.625 8 0.625C7.00544 0.625 6.05161 1.02009 5.34835 1.72335C4.64509 2.42661 4.25 3.38044 4.25 4.375V6.25H1.75C1.41848 6.25 1.10054 6.3817 0.866116 6.61612C0.631696 6.85054 0.5 7.16848 0.5 7.5V16.25C0.5 16.5815 0.631696 16.8995 0.866116 17.1339C1.10054 17.3683 1.41848 17.5 1.75 17.5H14.25C14.5815 17.5 14.8995 17.3683 15.1339 17.1339C15.3683 16.8995 15.5 16.5815 15.5 16.25V7.5C15.5 7.16848 15.3683 6.85054 15.1339 6.61612C14.8995 6.3817 14.5815 6.25 14.25 6.25ZM8 12.8125C7.81458 12.8125 7.63332 12.7575 7.47915 12.6545C7.32498 12.5515 7.20482 12.4051 7.13386 12.2338C7.06291 12.0625 7.04434 11.874 7.08051 11.6921C7.11669 11.5102 7.20598 11.3432 7.33709 11.2121C7.4682 11.081 7.63525 10.9917 7.8171 10.9555C7.99896 10.9193 8.18746 10.9379 8.35877 11.0089C8.53007 11.0798 8.67649 11.2 8.7795 11.3542C8.88252 11.5083 8.9375 11.6896 8.9375 11.875C8.9375 12.1236 8.83873 12.3621 8.66291 12.5379C8.4871 12.7137 8.24864 12.8125 8 12.8125ZM10.5 6.25H5.5V4.375C5.5 3.71196 5.76339 3.07607 6.23223 2.60723C6.70107 2.13839 7.33696 1.875 8 1.875C8.66304 1.875 9.29893 2.13839 9.76777 2.60723C10.2366 3.07607 10.5 3.71196 10.5 4.375V6.25Z" />
  </symbol>
  <symbol viewBox="0 0 30 30" id="market-off">
    <path d="M7.46 13.348a1.5 1.5 0 0 1 .285 1.99l-.093.122L4.702 19H14.5a1.5 1.5 0 0 1 0 3H4.701l2.951 3.54a1.5 1.5 0 0 1-2.2 2.033l-.104-.113-3.933-4.72a3.5 3.5 0 0 1-.13-4.315l.13-.166 3.933-4.72a1.5 1.5 0 0 1 2.112-.191zM24.548 2.427l.104.113 3.933 4.72a3.5 3.5 0 0 1 .13 4.315l-.13.166-3.933 4.72a1.5 1.5 0 0 1-2.397-1.798l.093-.123 2.95-3.54H15.5a1.5 1.5 0 0 1 0-3h9.799l-2.951-3.54a1.5 1.5 0 0 1 2.2-2.033z" fill-rule="evenodd"></path>
  </symbol>
  <symbol viewBox="0 0 30 30" id="market-on">
    <path d="M7.46 13.348a1.5 1.5 0 0 1 .285 1.99l-.093.122L4.702 19H13.5a1.5 1.5 0 0 1 0 3H4.701l2.951 3.54a1.5 1.5 0 0 1-2.2 2.033l-.104-.113-3.933-4.72a3.5 3.5 0 0 1-.13-4.315l.13-.166 3.933-4.72a1.5 1.5 0 0 1 2.112-.191zM24.548 2.427l.104.113 3.933 4.72a3.5 3.5 0 0 1 .13 4.315l-.13.166-3.933 4.72a1.5 1.5 0 0 1-2.397-1.798l.093-.123 2.95-3.54H16.5a1.5 1.5 0 0 1 0-3h8.799l-2.951-3.54a1.5 1.5 0 0 1 2.2-2.033z" fill-rule="evenodd"></path>
  </symbol>
  <symbol viewBox="0 0 30 30" id="more-off">
    <path d="M26.25 20.5a1.75 1.75 0 0 1 0 3.5H3.75a1.75 1.75 0 0 1 0-3.5h22.5zm0-7.75a1.75 1.75 0 0 1 0 3.5H3.75a1.75 1.75 0 0 1 0-3.5h22.5zm0-7.75a1.75 1.75 0 0 1 0 3.5H3.75a1.75 1.75 0 0 1 0-3.5h22.5z" fill-rule="evenodd"></path>
  </symbol>
  <symbol viewBox="0 0 30 30" id="more-on">
    <path d="M26.25 20.5a1.75 1.75 0 0 1 0 3.5H3.75a1.75 1.75 0 0 1 0-3.5h22.5zm0-7.75a1.75 1.75 0 0 1 0 3.5H3.75a1.75 1.75 0 0 1 0-3.5h22.5zm0-7.75a1.75 1.75 0 0 1 0 3.5H3.75a1.75 1.75 0 0 1 0-3.5h22.5z" fill-rule="evenodd"></path>
  </symbol>
  <symbol viewBox="0 0 30 30" id="new-post">
    <path d="M12.75 2a1.25 1.25 0 0 1 .128 2.494l-.128.006h-5.5a2.75 2.75 0 0 0-2.745 2.582L4.5 7.25v15.5a2.75 2.75 0 0 0 2.582 2.745l.168.005h15.5a2.75 2.75 0 0 0 2.745-2.582l.005-.168v-5.66a1.25 1.25 0 0 1 2.494-.128l.006.128v5.66a5.25 5.25 0 0 1-5.034 5.246L22.75 28H7.25a5.25 5.25 0 0 1-5.246-5.034L2 22.75V7.25a5.25 5.25 0 0 1 5.034-5.246L7.25 2h5.5zm8.866 1.091a3.725 3.725 0 0 1 5.268 5.268L15.8 19.442c-.16.16-.361.274-.581.329l-4.667 1.167a1.25 1.25 0 0 1-1.516-1.516l1.167-4.667c.055-.22.169-.42.329-.58zm3.5 1.768a1.225 1.225 0 0 0-1.732 0L12.545 15.697l-.578 2.31 2.31-.578 10.84-10.838a1.225 1.225 0 0 0 .088-1.633z" fill-rule="evenodd"></path>
  </symbol>
  <symbol viewBox="0 0 30 30" id="pin">
    <path d="M26.545 14.445l-10.99-10.99a1.554 1.554 0 0 0-2.653 1.1v3.751l-3.485 3.485H5.665a1.554 1.554 0 0 0-1.099 2.654l4.396 4.395-5.495 5.495a1.554 1.554 0 1 0 2.198 2.198l5.495-5.495 4.395 4.396a1.554 1.554 0 0 0 2.654-1.099v-3.752l3.485-3.485h3.752a1.554 1.554 0 0 0 1.099-2.653zm-5.495-.456c-.412 0-.808.164-1.099.456l-4.396 4.395a1.553 1.553 0 0 0-.455 1.1v.643L9.417 14.9h.644c.412 0 .807-.164 1.098-.455l4.396-4.396c.292-.292.456-.687.456-1.1v-.643l5.683 5.683h-.644z" fill-rule="evenodd"></path>
  </symbol>
  <symbol viewBox="0 0 30 30" id="remove">
    <path d="M2 15a3 3 0 0 1 3-3h20a3 3 0 0 1 0 6H5a3 3 0 0 1-3-3z" fill-rule="evenodd"></path>
  </symbol>
  <symbol viewBox="0 0 30 30" id="search">
    <path d="M14 4c5.523 0 10 4.477 10 10a9.955 9.955 0 0 1-1.943 5.924l3.5 3.5a1.51 1.51 0 0 1-2.134 2.134l-3.499-3.5A9.955 9.955 0 0 1 14 24C8.477 24 4 19.523 4 14S8.477 4 14 4zm0 2.5a7.5 7.5 0 1 0 0 15 7.5 7.5 0 0 0 0-15z" fill-rule="evenodd"></path>
  </symbol>
  <symbol viewBox="0 0 30 30" id="settings">
    <g transform="translate(3 3)" stroke="#A6B3C7" stroke-width="2.5" fill="none" fill-rule="evenodd" stroke-linecap="round" stroke-linejoin="round">
      <circle cx="12" cy="12" r="3"></circle>
      <path d="M20.073 15.273a1.8 1.8 0 0 0 .36 1.985l.065.066a2.182 2.182 0 1 1-3.087 3.087l-.066-.066a1.8 1.8 0 0 0-1.985-.36 1.8 1.8 0 0 0-1.09 1.648v.185a2.182 2.182 0 0 1-4.365 0v-.098a1.8 1.8 0 0 0-1.178-1.647 1.8 1.8 0 0 0-1.985.36l-.066.065a2.182 2.182 0 1 1-3.087-3.087l.066-.066a1.8 1.8 0 0 0 .36-1.985 1.8 1.8 0 0 0-1.648-1.09h-.185a2.182 2.182 0 0 1 0-4.365h.098a1.8 1.8 0 0 0 1.647-1.178 1.8 1.8 0 0 0-.36-1.985l-.065-.066A2.182 2.182 0 1 1 6.589 3.59l.066.066a1.8 1.8 0 0 0 1.985.36h.087a1.8 1.8 0 0 0 1.091-1.648v-.185a2.182 2.182 0 0 1 4.364 0v.098a1.8 1.8 0 0 0 1.09 1.647 1.8 1.8 0 0 0 1.986-.36l.066-.065a2.182 2.182 0 1 1 3.087 3.087l-.066.066a1.8 1.8 0 0 0-.36 1.985v.087a1.8 1.8 0 0 0 1.648 1.091h.185a2.182 2.182 0 0 1 0 4.364h-.098a1.8 1.8 0 0 0-1.647 1.09z"></path>
    </g>
  </symbol>
  <symbol viewBox="0 0 30 30" id="shop-off">
    <path d="M23.72 2a4 4 0 0 1 3.923 3.216l1.269 6.342c.046.233.074.467.084.698L29 12.5l-.008.23-.024.27a4.556 4.556 0 0 1-2.97 3.729L26 23a5 5 0 0 1-5 5H9a5 5 0 0 1-5-5l-.002-6.272a4.557 4.557 0 0 1-2.934-3.516l-.03-.21a4.596 4.596 0 0 1 .054-1.444l1.269-6.342A4 4 0 0 1 6.279 2h17.442zm-2.387 13.697A4.483 4.483 0 0 1 18.167 17 4.486 4.486 0 0 1 15 15.697 4.483 4.483 0 0 1 11.833 17a4.486 4.486 0 0 1-3.167-1.303A4.488 4.488 0 0 1 6.5 16.889V23a2.5 2.5 0 0 0 2.336 2.495L9 25.5h12a2.5 2.5 0 0 0 2.495-2.336L23.5 23l-.002-6.112a4.492 4.492 0 0 1-2.165-1.191zM23.721 4.5H6.279a1.5 1.5 0 0 0-1.436 1.068l-.035.138-1.268 6.342a2.05 2.05 0 0 0-.035.267l-.004.198.006.13.022.153c.149.885.868 1.572 1.708 1.685l.16.015.14.002.084-.001a1.979 1.979 0 0 0 1.151-.454l.134-.121 1.76-1.745 1.76 1.744c.374.37.87.579 1.407.579.477 0 .923-.165 1.278-.461l.128-.117L15 12.177l1.76 1.744c.374.37.871.579 1.408.579a1.98 1.98 0 0 0 1.277-.461l.129-.117 1.76-1.745 1.76 1.744c.303.301.69.496 1.07.556l.163.017.147.004.118-.003.131-.013.13-.022c.82-.164 1.445-.804 1.601-1.539l.025-.148.018-.204.003-.106v-.097a2.06 2.06 0 0 0-.013-.159l-.026-.159-1.268-6.342a1.5 1.5 0 0 0-1.33-1.2l-.141-.006z" fill-rule="evenodd"></path>
  </symbol>
  <symbol viewBox="0 0 30 30" id="shop-on">
    <path d="M23.72 2a4 4 0 0 1 3.923 3.216l1.269 6.342c.062.311.09.622.089.928L29 12.5l-.003.146-.002.03a4.516 4.516 0 0 1-.006.109l.008-.139a4.515 4.515 0 0 1-.024.312l-.003.021-.002.021A4.556 4.556 0 0 1 26 16.73V23a5 5 0 0 1-5 5H9a5 5 0 0 1-5-5l-.001-6.271a4.555 4.555 0 0 1-2.966-3.727l-.004-.036a4.567 4.567 0 0 1-.01-.108l.014.143a4.596 4.596 0 0 1 .055-1.443l1.269-6.342A4 4 0 0 1 6.279 2h17.442zm-2.387 13.697A4.483 4.483 0 0 1 18.167 17 4.486 4.486 0 0 1 15 15.697 4.483 4.483 0 0 1 11.833 17a4.486 4.486 0 0 1-3.167-1.303A4.488 4.488 0 0 1 6.5 16.889V23a2.5 2.5 0 0 0 2.336 2.495L9 25.5h12a2.5 2.5 0 0 0 2.495-2.336L23.5 23v-6.112a4.492 4.492 0 0 1-2.167-1.191z" fill-rule="evenodd"></path>
  </symbol>
  <symbol viewBox="0 0 30 30" id="star">
    <path d="M15 4c.389 0 .748.19.955.5l.063.107 3.127 5.969 6.89 1.01c.424.062.776.348.91.74.117.348.045.726-.187 1.01l-.095.1-4.96 4.705 1.134 6.589c.054.311-.037.63-.247.872a1.158 1.158 0 0 1-.85.393 1.176 1.176 0 0 1-.42-.065l-.13-.054L15 22.802l-6.19 3.074c-.383.192-.845.16-1.195-.084a1.074 1.074 0 0 1-.467-.927l.015-.135 1.133-6.59-4.96-4.703a1.058 1.058 0 0 1-.28-1.112c.12-.352.417-.619.785-.714l.125-.025 6.89-1.01 3.126-5.97A1.142 1.142 0 0 1 15 4zm2.521 8.864L15 8.05l-2.521 4.814-5.295.776 3.803 3.607-.896 5.2L15 20.011l4.908 2.436-.895-5.2 3.802-3.607-5.294-.776z" fill-rule="evenodd"></path>
  </symbol>
  <symbol viewBox="0 0 30 30" id="star-filled">
    <path d="M15 4c.389 0 .748.19.955.5l.063.107 3.127 5.969 6.89 1.01c.424.062.776.348.91.74.117.348.045.726-.187 1.01l-.095.1-4.96 4.705 1.134 6.589c.054.311-.037.63-.247.872a1.158 1.158 0 0 1-.85.393 1.176 1.176 0 0 1-.42-.065l-.13-.054L15 22.802l-6.19 3.074c-.383.192-.845.16-1.195-.084a1.074 1.074 0 0 1-.467-.927l.015-.135 1.133-6.59-4.96-4.703a1.058 1.058 0 0 1-.28-1.112c.12-.352.417-.619.785-.714l.125-.025 6.89-1.01 3.126-5.97A1.142 1.142 0 0 1 15 4z" fill-rule="evenodd"></path>
  </symbol>
  <symbol viewBox="0 0 30 30" id="subs">
    <g fill="none" fill-rule="evenodd">
      <path d="M11.483 16.64l5.289-7.486A2 2 0 0 0 15.138 6H4.773a2 2 0 0 0-1.655 3.123l5.077 7.486a2 2 0 0 0 3.288.031z" fill="#FF1853"></path>
      <path d="M18.517 13.36l-5.289 7.486A2 2 0 0 0 14.862 24h10.365a2 2 0 0 0 1.655-3.123l-5.077-7.486a2 2 0 0 0-3.288-.031z" fill="#35C577"></path>
    </g>
  </symbol>
  <symbol viewBox="0 0 30 30" id="table-off">
    <path d="M19.75 25.5a1.25 1.25 0 0 1 0 2.5h-9.5a1.25 1.25 0 0 1 0-2.5h9.5zM3.26 7.5l-.041.002a.5.5 0 0 0-.456.45v.09l.228 2.75a4.044 4.044 0 0 0 3.71 3.695l.024.058A8.97 8.97 0 0 1 6 11V7.499L3.26 7.5zm18.24-3h-13V11a6.504 6.504 0 0 0 5.107 6.35l.24.049 1.153.205 1.152-.205a6.503 6.503 0 0 0 5.343-6.15L21.5 11V4.5zM24 7.499V11c0 1.237-.25 2.415-.7 3.488l-.177.01a4.044 4.044 0 0 0 3.864-3.503l.022-.203.224-2.678.007-.104a.5.5 0 0 0-.373-.494l-.086-.014-.041-.002L24 7.499zM6 4.5A2.5 2.5 0 0 1 8.5 2h13A2.5 2.5 0 0 1 24 4.5v.499L26.74 5a3 3 0 0 1 2.999 3.073l-.01.176L29.5 11a6.544 6.544 0 0 1-6.29 5.996l-.23.004h-1.272a8.989 8.989 0 0 1-5.116 2.86l-.45 3.15a1.153 1.153 0 0 1-2.283 0l-.45-3.15a8.987 8.987 0 0 1-5.116-2.858L8.292 17H7.02A6.543 6.543 0 0 1 .5 11L.27 8.25A3 3 0 0 1 3.26 5L6 4.999V4.5z" fill-rule="evenodd"></path>
  </symbol>
  <symbol viewBox="0 0 30 30" id="table-on">
    <path d="M19.75 25.5a1.25 1.25 0 0 1 0 2.5h-9.5a1.25 1.25 0 0 1 0-2.5h9.5zM21.5 2A2.5 2.5 0 0 1 24 4.5v.499L27 5a3 3 0 0 1 .125.003l.124.007a3 3 0 0 1 2.74 3.24L29.76 11a6.543 6.543 0 0 1-6.52 6h-1.532a8.987 8.987 0 0 1-5.116 2.86l-.45 3.15a1.153 1.153 0 0 1-2.283 0l-.45-3.15A8.987 8.987 0 0 1 8.291 17H7.02A6.543 6.543 0 0 1 .5 11L.27 8.25A3 3 0 0 1 3.26 5L6 4.999V4.5A2.5 2.5 0 0 1 8.5 2h13zM24 7.499V11a8.972 8.972 0 0 1-.705 3.499l.147-.004a4.044 4.044 0 0 0 3.827-3.703l.23-2.75-.001-.09a.5.5 0 0 0-.457-.45L27 7.5l-3-.001zm-18 0L3.26 7.5l-.041.002a.5.5 0 0 0-.456.45v.09l.228 2.75a4.044 4.044 0 0 0 3.71 3.695A8.98 8.98 0 0 1 6 11V7.499z" fill-rule="evenodd"></path>
  </symbol>
  <symbol viewBox="0 0 30 30" id="team-off">
    <path d="M22 2a5 5 0 0 1 5 5v16a5 5 0 0 1-5 5h-2.557a1.96 1.96 0 0 1-.443.05h-8c-.152 0-.3-.017-.443-.05H8a5 5 0 0 1-5-5V7a5 5 0 0 1 5-5h14zm2.5 14l-4.856.001a4.752 4.752 0 0 1-9.288 0L5.5 16v7a2.5 2.5 0 0 0 2.336 2.495L8 25.5h1v-2a2 2 0 0 1 1.85-1.995L11 21.5h8a2 2 0 0 1 2 2v2h1a2.5 2.5 0 0 0 2.495-2.336L24.5 23v-7zM19 23.5h-8v2h8v-2zm-4-11.25a2.75 2.75 0 1 0 0 5.5 2.75 2.75 0 0 0 0-5.5zM9 4.5H8a2.5 2.5 0 0 0-2.495 2.336L5.5 7v7h4.856a4.752 4.752 0 0 1 9.288 0H24.5V7a2.5 2.5 0 0 0-2.336-2.495L22 4.5h-1v2a2 2 0 0 1-1.85 1.995L19 8.5h-8a2 2 0 0 1-2-2v-2zm10 0h-8v2h8v-2z" fill-rule="evenodd"></path>
  </symbol>
  <symbol viewBox="0 0 30 30" id="team-on">
    <path d="M22 2a5 5 0 0 1 5 5v16a5 5 0 0 1-5 5H8a5 5 0 0 1-5-5V7a5 5 0 0 1 5-5h14zm-3 19.5h-8l-.15.005A2 2 0 0 0 9 23.5v1l.007.117A1 1 0 0 0 11 24.5v-1h8v1l.007.117A1 1 0 0 0 21 24.5v-1l-.005-.15A2 2 0 0 0 19 21.5zm-4-11.25A4.752 4.752 0 0 0 10.356 14H6.5a1 1 0 0 0 0 2l3.856.001a4.752 4.752 0 0 0 9.288 0L23.5 16a1 1 0 0 0 0-2h-3.856A4.752 4.752 0 0 0 15 10.25zm0 2a2.75 2.75 0 1 1 0 5.5 2.75 2.75 0 0 1 0-5.5zm5-7.75a1 1 0 0 0-.993.883L19 5.5v1h-8v-1l-.007-.117a1 1 0 0 0-1.986 0L9 5.5v1l.006.157a2 2 0 0 0 1.845 1.838L11 8.5h8l.157-.006a2 2 0 0 0 1.838-1.845L21 6.5v-1l-.007-.117A1 1 0 0 0 20 4.5z" fill-rule="evenodd"></path>
  </symbol>
  <symbol id="double" viewBox="0 0 32 32">
    <path fill="#FFDB01" d="M29.44 16c0 7.423-6.017 13.44-13.44 13.44s-13.44-6.017-13.44-13.44c0-7.423 6.017-13.44 13.44-13.44s13.44 6.017 13.44 13.44z"></path>
    <path fill="#FF1843" d="M16 2.56c7.423 0 13.44 6.017 13.44 13.44 0 7.301-5.822 13.242-13.076 13.435l-0.364 0.005v-26.88z"></path>
  </symbol>
  <symbol id="five" viewBox="0 0 32 32">
    <path fill="#FFDB01" d="M29.44 16c0 7.423-6.017 13.44-13.44 13.44s-13.44-6.017-13.44-13.44c0-7.423 6.017-13.44 13.44-13.44s13.44 6.017 13.44 13.44z"></path>
    <path fill="#090C15" d="M16.216 23.058c3.343 0 5.544-1.869 5.544-4.796 0-2.803-2.097-4.485-4.443-4.485-1.267 0-2.388 0.498-3.052 1.163v-3.384h6.561v-2.595h-9.51v7.932l2.056 0.561c0.831-0.789 1.765-1.121 2.907-1.121 1.578 0 2.492 0.831 2.492 2.056 0 1.121-0.934 2.056-2.575 2.056-1.453 0-2.741-0.54-3.675-1.516l-1.64 2.056c1.184 1.287 2.928 2.076 5.336 2.076z"></path>
  </symbol>
<symbol id="doubt" viewBox="0 0 32 32">
    <path fill="#FD7314" d="M29.44 16c0 7.423-6.017 13.44-13.44 13.44s-13.44-6.017-13.44-13.44c0-7.423 6.017-13.44 13.44-13.44s13.44 6.017 13.44 13.44z"></path>
    <path fill="#FFFFFF" d="M15.613 19.2c0.702 0 1.21-0.555 1.307-1.183l0.073-0.435c2.638-0.531 4.768-1.787 4.768-4.854v-0.048c0-3.212-2.372-4.999-5.857-4.999-2.13 0-3.751 0.676-5.034 1.739-0.436 0.362-0.629 0.845-0.629 1.304 0 0.918 0.774 1.691 1.694 1.691 0.411 0 0.799-0.169 1.089-0.386 0.871-0.652 1.767-0.966 2.807-0.966 1.404 0 2.227 0.628 2.227 1.715v0.048c0 1.183-0.968 1.835-3.074 2.101-0.774 0.097-1.234 0.652-1.113 1.449l0.242 1.642c0.097 0.652 0.605 1.183 1.307 1.183h0.194zM15.616 24.32c1.103 0 1.92-0.826 1.92-1.898v-0.045c0-1.072-0.817-1.898-1.92-1.898s-1.92 0.826-1.92 1.898v0.045c0 1.072 0.817 1.898 1.92 1.898z"></path>
  </symbol>
<symbol id="injury" viewBox="0 0 32 32">
    <path fill="#FF1843" d="M29.44 16c0 7.423-6.017 13.44-13.44 13.44s-13.44-6.017-13.44-13.44c0-7.423 6.017-13.44 13.44-13.44s13.44 6.017 13.44 13.44z"></path>
    <path fill="#FFFFFF" d="M16 8.96c1.060 0 1.92 0.86 1.92 1.92v10.24c0 1.060-0.86 1.92-1.92 1.92s-1.92-0.86-1.92-1.92v-10.24c0-1.060 0.86-1.92 1.92-1.92z"></path>
    <path fill="#FFFFFF" d="M8.96 16c0-1.060 0.86-1.92 1.92-1.92h10.24c1.060 0 1.92 0.86 1.92 1.92s-0.86 1.92-1.92 1.92h-10.24c-1.060 0-1.92-0.86-1.92-1.92z"></path>
  </symbol>
  <symbol id="other" viewBox="0 0 32 32">
    <path fill="#FFDB01" d="M29.44 16c0 7.423-6.017 13.44-13.44 13.44s-13.44-6.017-13.44-13.44c0-7.423 6.017-13.44 13.44-13.44s13.44 6.017 13.44 13.44z"></path>
    <path fill="#FF1843" d="M16 2.56c7.423 0 13.44 6.017 13.44 13.44h-13.44v-13.44z"></path>
    <path fill="#FF1843" d="M16 29.44c-7.423 0-13.44-6.017-13.44-13.44h13.44v13.44z"></path>
  </symbol>
<symbol id="red" viewBox="0 0 32 32">
    <path fill="#FF1843" d="M29.44 16c0 7.423-6.017 13.44-13.44 13.44s-13.44-6.017-13.44-13.44c0-7.423 6.017-13.44 13.44-13.44s13.44 6.017 13.44 13.44z"></path>
  </symbol>
<symbol id="events-assist" viewBox="0 0 60 60">
    <path fill="#0980FF" d="M30,0 C46.5685425,0 60,13.4314575 60,30 C60,46.5685425 46.5685425,60 30,60 C13.4314575,60 0,46.5685425 0,30 C0,13.4314575 13.4314575,0 30,0 Z M32.360688,15.5 L32.0894563,15.5 C31.5105278,15.5 31.0403003,15.57168 30.6787738,15.7153846 C30.3172473,15.8590892 29.9553735,16.0744738 29.5934998,16.3615385 C29.213567,16.6665231 28.8697522,17.0076923 28.5624026,17.3847015 C28.2727647,17.7437908 28.0557099,18.1025354 27.9112382,18.4616246 C27.7667666,18.8207138 27.6941834,19.2694031 27.6941834,19.8076923 C27.6941834,20.3459815 27.7667666,20.7950154 27.9112382,21.15376 C28.0741162,21.5307692 28.3269416,21.9256985 28.6711037,22.3385477 C29.0149185,22.7693169 29.485146,23.2628062 30.0817862,23.81936 L31.5199045,25.1923077 L17.0859339,25.1923077 C16.1993084,25.1923077 15.5033439,25.3360123 14.9966512,25.6230769 C14.4899584,25.9280615 14.092314,26.2154708 13.8026761,26.4846154 C13.5314444,26.77168 13.2418065,27.1666092 12.9344569,27.6694031 C12.6444717,28.1718523 12.5,28.7821662 12.5,29.5 C12.5,30.2181785 12.6444717,30.8281477 12.9341096,31.3305969 C13.2414592,31.8333908 13.5310971,32.2279754 13.8023288,32.5153846 C14.0919667,32.7845292 14.4896111,33.0719385 14.9963039,33.3769231 C15.5029966,33.6643323 16.1989611,33.8076923 17.0855866,33.8076923 L31.3025025,33.8076923 L28.9690765,36.3654277 C28.1192636,37.2989908 27.6938361,38.1874092 27.6938361,39.0306831 C27.6938361,39.8563815 27.9108909,40.5921354 28.3450005,41.2382892 C28.7975164,41.8661785 29.3399798,42.4048123 29.9730852,42.8538462 C30.6242496,43.2846154 31.3750856,43.5 32.2248985,43.5 C33.0747115,43.5 33.961337,43.0606154 34.883733,42.1808123 L37.1355464,40.0000862 C39.5412082,37.6846154 41.8746341,35.3512246 44.1354769,33.0002585 L47.5,29.5 L44.1358242,26.0000862 C41.8749814,23.6487754 39.5415555,21.3153846 37.1358937,19.0002585 L34.7212024,16.6847877 C33.9071601,15.8949292 33.1205535,15.5 32.360688,15.5 Z"></path>
  </symbol>
  <symbol id="events-yellow" viewBox="0 0 60 60">
    <path fill="#FFDB01" d="M15,0 L45,0 C53.2842712,-1.52179594e-15 60,6.71572875 60,15 L60,45 C60,53.2842712 53.2842712,60 45,60 L15,60 C6.71572875,60 1.01453063e-15,53.2842712 0,45 L0,15 C-1.01453063e-15,6.71572875 6.71572875,1.52179594e-15 15,0 Z"></path>
  </symbol>
  <symbol id="events-red" viewBox="0 0 60 60">
    <path fill="#FF1843" d="M15,0 L45,0 C53.2842712,-1.52179594e-15 60,6.71572875 60,15 L60,45 C60,53.2842712 53.2842712,60 45,60 L15,60 C6.71572875,60 1.01453063e-15,53.2842712 0,45 L0,15 C-1.01453063e-15,6.71572875 6.71572875,1.52179594e-15 15,0 Z"></path>
  </symbol>
  <symbol id="events-double" viewBox="0 0 60 60">
    <path fill="#FFDB01" transform="translate(15.000000, 30.000000) scale(-1, 1) translate(-15.000000, -30.000000)" d="M0,0 L15,0 C23.2842712,-1.52179594e-15 30,6.71572875 30,15 L30,45 C30,53.2842712 23.2842712,60 15,60 L0,60 L0,60 L0,0 Z"></path>
    <path fill="#FF1843" d="M30,0 L45,0 C53.2842712,-1.52179594e-15 60,6.71572875 60,15 L60,45 C60,53.2842712 53.2842712,60 45,60 L30,60 L30,60 L30,0 Z"></path>
  </symbol>
  <symbol id="events-goal" viewBox="0 0 60 60">
    <circle fill="#0AC671" cx="30" cy="30" r="30"></circle>
  </symbol>
  <symbol id="events-own_goal" viewBox="0 0 60 60">
    <circle fill="#FF1843" cx="30" cy="30" r="30"></circle>
  </symbol>
  <symbol id="events-penalty" viewBox="0 0 60 60">
    <path fill="#0AC671" d="M30,0 C46.5685425,0 60,13.4314575 60,30 C60,46.5685425 46.5685425,60 30,60 C13.4314575,60 0,46.5685425 0,30 C0,13.4314575 13.4314575,0 30,0 Z M30,12 L26.5000862,15.3382892 C24.1487754,17.5817354 21.8153846,19.8972062 19.5002585,22.2843569 L17.1847877,24.6804677 C16.3949292,25.4882462 16,26.2688 16,27.0228185 L16,27.2919631 C16,27.8664369 16.07168,28.3330462 16.2153846,28.6917908 C16.3590892,29.0505354 16.5744738,29.4096246 16.8615385,29.7687138 C17.1665231,30.1457231 17.5076923,30.4868923 17.8847015,30.7918769 C18.2437908,31.0792862 18.6025354,31.2946708 18.9616246,31.4380308 C19.3207138,31.5813908 19.7694031,31.6534154 20.3076923,31.6534154 C20.8459815,31.6534154 21.2950154,31.5813908 21.65376,31.4380308 C22.0307692,31.2764062 22.4256985,31.0255262 22.8385477,30.6840123 C23.2693169,30.3428431 23.7628062,29.8762338 24.31936,29.2841846 L25.6923077,27.8571323 L25.6923077,42.1800369 C25.6923077,43.05984 25.8360123,43.7504492 26.1230769,44.2532431 C26.4280615,44.7560369 26.7154708,45.1506215 26.9846154,45.4380308 C27.27168,45.7071754 27.6666092,45.9945846 28.1694031,46.2995692 C28.6718523,46.5873231 29.2821662,46.7306831 30,46.7306831 C30.7181785,46.7306831 31.3281477,46.5873231 31.8305969,46.2999138 C32.3333908,45.9949292 32.7279754,45.70752 33.0153846,45.4383754 C33.2845292,45.1509662 33.5719385,44.7563815 33.8769231,44.2535877 C34.1643323,43.7507938 34.3076923,43.0601846 34.3076923,42.1803815 L34.3076923,28.0728615 L36.8654277,30.3883323 C37.7989908,31.2316062 38.6874092,31.65376 39.5306831,31.65376 C40.3563815,31.65376 41.0921354,31.4383754 41.7382892,31.0076062 C42.3661785,30.5585723 42.9048123,30.0202831 43.3538462,29.3920492 C43.7846154,28.7458954 44,28.0008369 44,27.1575631 C44,26.3142892 43.5606154,25.4344862 42.6808123,24.5191877 L40.5000862,22.2847015 C38.1846154,19.8975508 35.8512246,17.58208 33.5002585,15.3386338 L30,12 Z"></path>
  </symbol>
  <symbol id="events-missed_penalty" viewBox="0 0 60 60">
    <path fill="#FF1843" d="M30,0 C46.5685425,0 60,13.4314575 60,30 C60,46.5685425 46.5685425,60 30,60 C13.4314575,60 0,46.5685425 0,30 C0,13.4314575 13.4314575,0 30,0 Z M30,12 L26.5000862,15.3382892 C24.1487754,17.5817354 21.8153846,19.8972062 19.5002585,22.2843569 L17.1847877,24.6804677 C16.3949292,25.4882462 16,26.2688 16,27.0228185 L16,27.2919631 C16,27.8664369 16.07168,28.3330462 16.2153846,28.6917908 C16.3590892,29.0505354 16.5744738,29.4096246 16.8615385,29.7687138 C17.1665231,30.1457231 17.5076923,30.4868923 17.8847015,30.7918769 C18.2437908,31.0792862 18.6025354,31.2946708 18.9616246,31.4380308 C19.3207138,31.5813908 19.7694031,31.6534154 20.3076923,31.6534154 C20.8459815,31.6534154 21.2950154,31.5813908 21.65376,31.4380308 C22.0307692,31.2764062 22.4256985,31.0255262 22.8385477,30.6840123 C23.2693169,30.3428431 23.7628062,29.8762338 24.31936,29.2841846 L25.6923077,27.8571323 L25.6923077,42.1800369 C25.6923077,43.05984 25.8360123,43.7504492 26.1230769,44.2532431 C26.4280615,44.7560369 26.7154708,45.1506215 26.9846154,45.4380308 C27.27168,45.7071754 27.6666092,45.9945846 28.1694031,46.2995692 C28.6718523,46.5873231 29.2821662,46.7306831 30,46.7306831 C30.7181785,46.7306831 31.3281477,46.5873231 31.8305969,46.2999138 C32.3333908,45.9949292 32.7279754,45.70752 33.0153846,45.4383754 C33.2845292,45.1509662 33.5719385,44.7563815 33.8769231,44.2535877 C34.1643323,43.7507938 34.3076923,43.0601846 34.3076923,42.1803815 L34.3076923,28.0728615 L36.8654277,30.3883323 C37.7989908,31.2316062 38.6874092,31.65376 39.5306831,31.65376 C40.3563815,31.65376 41.0921354,31.4383754 41.7382892,31.0076062 C42.3661785,30.5585723 42.9048123,30.0202831 43.3538462,29.3920492 C43.7846154,28.7458954 44,28.0008369 44,27.1575631 C44,26.3142892 43.5606154,25.4344862 42.6808123,24.5191877 L40.5000862,22.2847015 C38.1846154,19.8975508 35.8512246,17.58208 33.5002585,15.3386338 L30,12 Z"></path>
  </symbol>
  <symbol id="events-saved_penalty" viewBox="0 0 512 512">
    <path fill="#0AC671" d="M288 32c0-17.7-14.3-32-32-32s-32 14.3-32 32V240c0 8.8-7.2 16-16 16s-16-7.2-16-16V64c0-17.7-14.3-32-32-32s-32 14.3-32 32V336c0 1.5 0 3.1 .1 4.6L67.6 283c-16-15.2-41.3-14.6-56.6 1.4s-14.6 41.3 1.4 56.6L124.8 448c43.1 41.1 100.4 64 160 64H304c97.2 0 176-78.8 176-176V128c0-17.7-14.3-32-32-32s-32 14.3-32 32V240c0 8.8-7.2 16-16 16s-16-7.2-16-16V64c0-17.7-14.3-32-32-32s-32 14.3-32 32V240c0 8.8-7.2 16-16 16s-16-7.2-16-16V32z"></path>
  </symbol>
  <symbol id="events-sub_in" viewBox="0 0 60 60">
    <path fill="#0AC671" d="M54.7017204,0 C57.6278794,0 60,2.37055134 60,5.29827958 L60,5.29827958 L60,54.7017204 C60,57.6278794 57.6294487,60 54.7017204,60 L54.7017204,60 L42,60 C39.790861,60 38,58.209139 38,56 C38,53.790861 39.790861,52 42,52 L42,52 L45,52 C51.8106576,51.9998868 51.9962939,52 51.9962939,52 L51.9969924,50.9950367 C51.9978919,48.3285973 51.9985571,40.7232219 51.9990299,32.6359992 L52,8.0037061 C52,8.00302339 51.9016703,8.00245106 49.2605811,8.00197642 L45,8.00147581 L45,8 L42,8 C39.790861,8 38,6.209139 38,4 C38,1.790861 39.790861,0 42,0 L42,0 Z M17,9.52266191 C17.7161338,9.52266191 18.4086448,9.77883839 18.9523741,10.2448921 L39.3426019,27.7222302 C40.6005794,28.8004966 40.746264,30.6943966 39.6679976,31.9523741 C39.5680235,32.0690105 39.4592383,32.1777957 39.3426019,32.2777698 L18.9523741,49.7551079 C17.6943966,50.8333743 15.8004966,50.6876897 14.7222302,49.4297122 C14.2561765,48.8859829 14,48.1934719 14,47.4773381 L14,37.9996619 L8,38 C3.581722,38 1.31991489e-13,34.418278 1.31450406e-13,30 C1.30909323e-13,25.581722 3.581722,22 8,22 L14,21.9996619 L14,12.5226619 C14,10.8658077 15.3431458,9.52266191 17,9.52266191 Z"></path>
  </symbol>
  <symbol id="events-sub_out" viewBox="0 0 60 60">
    <path fill="#FF1843" d="M18,0 C20.209139,0 22,1.790861 22,4 C22,6.209139 20.209139,8 18,8 L15,8 L15,8.00147581 L10.7394189,8.00197642 C8.09832971,8.00245106 8,8.00302339 8,8.0037061 L8.00097008,32.6359992 C8.00144286,40.7232219 8.0021081,48.3285973 8.00300756,50.9950367 L8.0037061,52 C8.0037061,52 8.18934239,51.9998868 15,51.999627 L15,52 L18,52 C20.209139,52 22,53.790861 22,56 C22,58.209139 20.209139,60 18,60 L5.29827958,60 C2.37055134,60 1.91846539e-13,57.6278794 1.91846539e-13,54.7017204 L1.91846539e-13,5.29827958 C1.91846539e-13,2.37055134 2.37212057,0 5.29827958,0 L18,0 Z M35,9.52266191 C35.7161338,9.52266191 36.4086448,9.77883839 36.9523741,10.2448921 L57.3426019,27.7222302 C58.6005794,28.8004966 58.746264,30.6943966 57.6679976,31.9523741 C57.5680235,32.0690105 57.4592383,32.1777957 57.3426019,32.2777698 L36.9523741,49.7551079 C35.6943966,50.8333743 33.8004966,50.6876897 32.7222302,49.4297122 C32.2561765,48.8859829 32,48.1934719 32,47.4773381 L32,37.9996619 L26,38 C21.581722,38 18,34.418278 18,30 C18,25.581722 21.581722,22 26,22 L32,21.9996619 L32,12.5226619 C32,10.8658077 33.3431458,9.52266191 35,9.52266191 Z"></path>
  </symbol>
  <symbol id="events-golden_goal" viewBox="0 0 512 512">
    <path fill="#ff9800" d="M177.1 228.6L207.9 320h96.5l29.62-91.38L256 172.1L177.1 228.6zM255.1 0C114.6 0 .0001 114.6 .0001 256S114.6 512 256 512s255.1-114.6 255.1-255.1S397.4 0 255.1 0zM435.2 361.1l-103.9-1.578l-30.67 99.52C286.2 462.2 271.3 464 256 464s-30.19-1.773-44.56-4.93L180.8 359.6L76.83 361.1c-14.93-25.35-24.79-54.01-27.8-84.72L134.3 216.4L100.7 118.1c19.85-22.34 44.32-40.45 72.04-52.62L256 128l83.29-62.47c27.72 12.17 52.19 30.27 72.04 52.62L377.7 216.4l85.23 59.97C459.1 307.1 450.1 335.8 435.2 361.1z"></path>
  </symbol>
  <symbol id="events-decisive_goal" viewBox="0 0 512 512">
    <path fill="#0AC671" d="M256 512A256 256 0 1 0 256 0a256 256 0 1 0 0 512zm0-352a96 96 0 1 1 0 192 96 96 0 1 1 0-192z"/>
  </symbol>
  <symbol id="events-gameweek_mvp" viewBox="0 0 576 512">
    <path fill="#ff9800" d="M400 0H176c-26.5 0-48.1 21.8-47.1 48.2c.2 5.3 .4 10.6 .7 15.8H24C10.7 64 0 74.7 0 88c0 92.6 33.5 157 78.5 200.7c44.3 43.1 98.3 64.8 138.1 75.8c23.4 6.5 39.4 26 39.4 45.6c0 20.9-17 37.9-37.9 37.9H192c-17.7 0-32 14.3-32 32s14.3 32 32 32H384c17.7 0 32-14.3 32-32s-14.3-32-32-32H357.9C337 448 320 431 320 410.1c0-19.6 15.9-39.2 39.4-45.6c39.9-11 93.9-32.7 138.2-75.8C542.5 245 576 180.6 576 88c0-13.3-10.7-24-24-24H446.4c.3-5.2 .5-10.4 .7-15.8C448.1 21.8 426.5 0 400 0zM48.9 112h84.4c9.1 90.1 29.2 150.3 51.9 190.6c-24.9-11-50.8-26.5-73.2-48.3c-32-31.1-58-76-63-142.3zM464.1 254.3c-22.4 21.8-48.3 37.3-73.2 48.3c22.7-40.3 42.8-100.5 51.9-190.6h84.4c-5.1 66.3-31.1 111.2-63 142.3z"></path>
  </symbol>
  <symbol id="events-match_mvp" viewBox="0 0 512 512">
    <path fill="#ff9800" d="M16 0H144c5.3 0 10.3 2.7 13.3 7.1l81.1 121.6c-49.5 4.1-94 25.6-127.6 58.3L2.7 24.9C-.6 20-.9 13.7 1.9 8.5S10.1 0 16 0zM509.3 24.9L401.2 187.1c-33.5-32.7-78.1-54.2-127.6-58.3L354.7 7.1c3-4.5 8-7.1 13.3-7.1H496c5.9 0 11.3 3.2 14.1 8.5s2.5 11.5-.8 16.4zM432 336c0 97.2-78.8 176-176 176s-176-78.8-176-176s78.8-176 176-176s176 78.8 176 176zM264.4 241.1c-3.4-7-13.3-7-16.8 0l-22.4 45.4c-1.4 2.8-4 4.7-7 5.1L168 298.9c-7.7 1.1-10.7 10.5-5.2 16l36.3 35.4c2.2 2.2 3.2 5.2 2.7 8.3l-8.6 49.9c-1.3 7.6 6.7 13.5 13.6 9.9l44.8-23.6c2.7-1.4 6-1.4 8.7 0l44.8 23.6c6.9 3.6 14.9-2.2 13.6-9.9l-8.6-49.9c-.5-3 .5-6.1 2.7-8.3l36.3-35.4c5.6-5.4 2.5-14.8-5.2-16l-50.1-7.3c-3-.4-5.7-2.4-7-5.1l-22.4-45.4z"></path>
  </symbol>
  <symbol id="info" viewBox="0 0 400 400">
    <path d="M180.918 18.721C31.196 34.504-36.046 217.188 68.023 325.435c90.903 94.552 247.37 66.805 299.371-53.089C422.586 145.095 318.971 4.168 180.918 18.721m42.999 71.362c20.24 6.039 25.595 29.27 9.853 42.745-9.838 8.42-22.998 8.939-33.965 1.339-23.831-16.515-4.142-52.514 24.112-44.084m-17.6 76.897c20.624 7.148 22.756 23.079 9.323 69.648-14.454 50.108-10.806 61.086 17.828 53.659 6.671-1.731 6.779-1.619 4.907 5.12-1.092 3.931-1.705 4.334-12.854 8.458-30.294 11.202-52.743 7.71-61.497-9.569-5.263-10.388-4.311-18.937 6.361-57.087 12.878-46.039 11.812-53.721-7.455-53.721-3.827 0-8.86.628-11.185 1.395-5.322 1.757-5.523 1.51-3.75-4.612 1.451-5.013 1.487-5.039 12.486-9.036 20.933-7.606 32.948-8.721 45.836-4.255" fill-rule="evenodd"/>
   </symbol>
  <symbol id="send" viewBox="0 0 24 24">
    <path d="M1.101 21.757L23.8 12.028 1.101 2.3l.011 7.912 13.623 1.816-13.623 1.817-.011 7.912z"></path>
  </symbol>
  <symbol id="rotate" viewBox="0 0 512 512">
    <g transform="matrix(-1, 0, 0, -1, 512, 512)">
      <path d="M342 440l-63 63c-19 19-51 6-51-21l0-19c-116-15-207-114-207-235 0-107 72-198 171-227 18-5 36 10 36 28l0 1c0 13-8 25-20 28-74 21-127 90-127 170 0 88 63 161 147 175l0-45c0-26 32-39 51-21l63 61c12 12 12 31 0 42z m143-145c-5 16-11 32-20 47-9 16-32 19-46 6l0-1c-9-9-11-23-5-34 6-11 11-23 14-34 4-13 15-21 28-21l1 0c19 0 34 18 28 37z m-197-264l0-1c0-19 18-34 36-28 17 4 32 11 47 19 17 9 20 33 6 46l0 1c-10 9-23 11-35 5-11-6-22-11-34-15-12-3-20-15-20-27z m131 78c14-14 37-11 46 6 8 15 15 31 20 47 5 18-9 37-28 37l-1 0c-13 0-24-9-28-21-3-12-8-23-14-35-6-11-4-25 5-34z"></path>
    </g>
  </symbol>
  <symbol id="email" viewBox="0 0 512 512">
    <g transform="matrix(-1, 0, 0, -1, 512, 512)">
      <path d="M62 399l194-132 194 132c-3 3-8 5-14 5l-360 0c-6 0-11-2-14-5z m-6-58l0-216c0-9 9-17 20-17l360 0c11 0 20 8 20 17l0 216-186-127c-8-6-20-6-28 0z m451 52c0-1 0-3 0-5 0 0 0-1 0-1l0-262c0-38-32-69-71-69l-360 0c-39 0-71 31-71 69l0 262c0 0 0 1 0 1 0 2 0 4 0 5 4 35 34 63 71 63l360 0c37 0 67-28 71-63z"></path>
    </g>
  </symbol>
  <symbol id="verified-badge" viewBox="0 0 512 512">
    <path d="m512 268c0 17.9-4.3 34.5-12.9 49.7s-20.1 27.1-34.6 35.4c.4 2.7.6 6.9.6 12.6 0 27.1-9.1 50.1-27.1 69.1-18.1 19.1-39.9 28.6-65.4 28.6-11.4 0-22.3-2.1-32.6-6.3-8 16.4-19.5 29.6-34.6 39.7-15 10.2-31.5 15.2-49.4 15.2-18.3 0-34.9-4.9-49.7-14.9-14.9-9.9-26.3-23.2-34.3-40-10.3 4.2-21.1 6.3-32.6 6.3-25.5 0-47.4-9.5-65.7-28.6-18.3-19-27.4-42.1-27.4-69.1 0-3 .4-7.2 1.1-12.6-14.5-8.4-26-20.2-34.6-35.4-8.5-15.2-12.8-31.8-12.8-49.7 0-19 4.8-36.5 14.3-52.3s22.3-27.5 38.3-35.1c-4.2-11.4-6.3-22.9-6.3-34.3 0-27 9.1-50.1 27.4-69.1s40.2-28.6 65.7-28.6c11.4 0 22.3 2.1 32.6 6.3 8-16.4 19.5-29.6 34.6-39.7 15-10.1 31.5-15.2 49.4-15.2s34.4 5.1 49.4 15.1c15 10.1 26.6 23.3 34.6 39.7 10.3-4.2 21.1-6.3 32.6-6.3 25.5 0 47.3 9.5 65.4 28.6s27.1 42.1 27.1 69.1c0 12.6-1.9 24-5.7 34.3 16 7.6 28.8 19.3 38.3 35.1 9.5 15.9 14.3 33.4 14.3 52.4zm-266.9 77.1 105.7-158.3c2.7-4.2 3.5-8.8 2.6-13.7-1-4.9-3.5-8.8-7.7-11.4-4.2-2.7-8.8-3.6-13.7-2.9-5 .8-9 3.2-12 7.4l-93.1 140-42.9-42.8c-3.8-3.8-8.2-5.6-13.1-5.4-5 .2-9.3 2-13.1 5.4-3.4 3.4-5.1 7.7-5.1 12.9 0 5.1 1.7 9.4 5.1 12.9l58.9 58.9 2.9 2.3c3.4 2.3 6.9 3.4 10.3 3.4 6.7-.1 11.8-2.9 15.2-8.7z"></path>
  </symbol>
  <symbol id="instagram" viewBox="0 0 512 512">
    <path d="m510.460938 150.453125c-1.246094-27.25-5.574219-45.859375-11.902344-62.140625-6.425782-17.082031-16.503906-32.554688-29.527344-45.34375-12.785156-13.023438-28.261719-23.105469-45.34375-29.535156-16.285156-6.324219-34.890625-10.648438-62.140625-11.886719-27.300781-1.25-36.023437-1.546875-105.546875-1.546875s-78.246094.296875-105.546875 1.539062c-27.25 1.246094-45.855469 5.574219-62.140625 11.902344-17.082031 6.425782-32.554688 16.503906-45.34375 29.527344-13.023438 12.785156-23.105469 28.257812-29.535156 45.339844-6.324219 16.285156-10.648438 34.894531-11.886719 62.140625-1.25 27.304687-1.546875 36.023437-1.546875 105.546875 0 69.527344.296875 78.25 1.546875 105.550781 1.242187 27.246094 5.570313 45.855469 11.898437 62.140625 6.425782 17.078125 16.503907 32.554688 29.527344 45.339844 12.785156 13.023437 28.261719 23.101562 45.34375 29.527344 16.28125 6.332031 34.890625 10.65625 62.140625 11.902343 27.304688 1.246094 36.023438 1.539063 105.546875 1.539063 69.523438 0 78.246094-.292969 105.546875-1.539063 27.25-1.246093 45.855469-5.570312 62.140625-11.902343 34.386719-13.296876 61.570313-40.480469 74.867188-74.867188 6.332031-16.285156 10.65625-34.894531 11.902344-62.140625 1.242187-27.304687 1.539062-36.023437 1.539062-105.546875 0-69.527344-.296875-78.246094-1.539062-105.546875zm-46.082032 208.996094c-1.136718 24.960937-5.308594 38.515625-8.8125 47.535156-8.613281 22.328125-26.257812 39.972656-48.585937 48.585937-9.019531 3.503907-22.574219 7.675782-47.535157 8.8125-26.988281 1.234376-35.085937 1.492188-103.445312 1.492188-68.363281 0-76.457031-.257812-103.449219-1.492188-24.957031-1.136718-38.511719-5.308593-47.535156-8.8125-11.117187-4.105468-21.175781-10.648437-29.433594-19.152343-8.503906-8.257813-15.046875-18.3125-19.152343-29.433594-3.503907-9.019531-7.675782-22.574219-8.8125-47.535156-1.230469-26.992188-1.492188-35.089844-1.492188-103.445313 0-68.359375.261719-76.453125 1.492188-103.449218 1.140624-24.960938 5.308593-38.515626 8.8125-47.535157 4.105468-11.121093 10.652343-21.179687 19.152343-29.4375 8.257813-8.503906 18.316407-15.046875 29.4375-19.148437 9.019531-3.507813 22.574219-7.675782 47.535157-8.816406 26.992187-1.230469 35.089843-1.492188 103.445312-1.492188h-.003906c68.355468 0 76.453125.261719 103.449218 1.496094 24.960938 1.136718 38.511719 5.308594 47.535157 8.8125 11.117187 4.105468 21.175781 10.648437 29.433593 19.148437 8.503907 8.257813 15.046876 18.316407 19.148438 29.4375 3.507812 9.019531 7.679688 22.574219 8.816406 47.535157 1.230469 26.992187 1.492188 35.089843 1.492188 103.445312 0 68.359375-.257813 76.453125-1.492188 103.449219zm0 0"/>
    <path d="m255.996094 124.539062c-72.601563 0-131.457032 58.859376-131.457032 131.460938s58.855469 131.457031 131.457032 131.457031c72.605468 0 131.460937-58.855469 131.460937-131.457031s-58.855469-131.460938-131.460937-131.460938zm0 216.792969c-47.125-.003906-85.332032-38.207031-85.328125-85.335937 0-47.125 38.203125-85.332032 85.332031-85.332032 47.128906.003907 85.332031 38.207032 85.332031 85.332032 0 47.128906-38.207031 85.335937-85.335937 85.335937zm0 0"/>
    <path d="m423.371094 119.347656c0 16.964844-13.753906 30.71875-30.71875 30.71875-16.96875 0-30.722656-13.753906-30.722656-30.71875 0-16.96875 13.753906-30.722656 30.722656-30.722656 16.964844 0 30.71875 13.753906 30.71875 30.722656zm0 0"/>
  </symbol>
  <symbol id="vertical-dots" viewBox="0 0 128 512">
    <path d="M64 360c30.9 0 56 25.1 56 56s-25.1 56-56 56s-56-25.1-56-56s25.1-56 56-56zm0-160c30.9 0 56 25.1 56 56s-25.1 56-56 56s-56-25.1-56-56s25.1-56 56-56zM120 96c0 30.9-25.1 56-56 56S8 126.9 8 96S33.1 40 64 40s56 25.1 56 56z"/>
  </symbol>
  <symbol id="report-flag" viewBox="0 0 448 512">
    <path d="M48 24C48 10.7 37.3 0 24 0S0 10.7 0 24V64 350.5 400v88c0 13.3 10.7 24 24 24s24-10.7 24-24V388l80.3-20.1c41.1-10.3 84.6-5.5 122.5 13.4c44.2 22.1 95.5 24.8 141.7 7.4l34.7-13c12.5-4.7 20.8-16.6 20.8-30V66.1c0-23-24.2-38-44.8-27.7l-9.6 4.8c-46.3 23.2-100.8 23.2-147.1 0c-35.1-17.6-75.4-22-113.5-12.5L48 52V24zm0 77.5l96.6-24.2c27-6.7 55.5-3.6 80.4 8.8c54.9 27.4 118.7 29.7 175 6.8V334.7l-24.4 9.1c-33.7 12.6-71.2 10.7-103.4-5.4c-48.2-24.1-103.3-30.1-155.6-17.1L48 338.5v-237z"/>
  </symbol>
</svg>